# xmcd
#
# Track frame offsets:
#	183
#	11115
#	21540
#	36340
#	49583
#	69390
#	79665
#	99878
#	110415
#	127290
#	138265
#	157940
#	170790
#	181100
#	198165
#	215590
#	228390
#	239115
#	266940
#	278040
#
# Disc length: 3751 seconds
#
# Revision: 1
# Processed by: cddbd v1.5.2PL0 Copyright (c) Steve Scherf et al.
# Submitted via: audiograbber 1.83.01
#
DISCID=230ea514
DTITLE=Various Artist - Church Street Station - Volume 1
DYEAR=1900
DGENRE=Country
TTITLE0=Danny Davis and Nashville Brass - Trailer - It's Country Time
TTITLE1=Tammy Wynette - Womanhood
TTITLE2=George Jones - I Always Get Lucky With You
TTITLE3=Barbara Fairchild - Where Is The Fire
TTITLE4=The Osmonds - He Ain't Heavy, He's My Brother
TTITLE5=Faron Young - Going Steady
TTITLE6=Nitty Gritty Dirt Band - Mr. Bojangles
TTITLE7=Leroy Van Dyke - Walk On By
TTITLE8=Jonny Rodriguez - She Don't Cry Like She Used To
TTITLE9=Lynn Anderson - Even Cowgirls Get The Blues
TTITLE10=Jimmy Dean - Bill Bailey
TTITLE11=Tanya Tucker - San Antonio Stroll
TTITLE12=Forester Sisters - Just In Case
TTITLE13=Freddy Fender - Whiskey River
TTITLE14=Denise Price - All Of My Life
TTITLE15=Mickey Gilley - Headache Tomorrow, Heartache Tonight
TTITLE16=The Bellamy Brothers - Let Your Love Flow
TTITLE17=(Howard) - (Locklin) - (Tillotson) - Medley - Heartaches By The Number
TTITLE17=Send Me The Pillow You Dream On - It Keeps Right On Hurtin'
TTITLE18=Allen - It's Over
TTITLE19=Danny Davis and Nashville Brass - Trailer - It's Country Time
EXTD=
EXTT0=
EXTT1=
EXTT2=
EXTT3=
EXTT4=
EXTT5=
EXTT6=
EXTT7=
EXTT8=
EXTT9=
EXTT10=
EXTT11=
EXTT12=
EXTT13=
EXTT14=
EXTT15=
EXTT16=
EXTT17=
EXTT18=
EXTT19=
PLAYORDER=
